<svg width="20" height="20" viewBox="0 0 20 20" fill="none" xmlns="http://www.w3.org/2000/svg">
<g opacity="0.9">
<path fillRule="evenodd" clipRule="evenodd" d="M10.2842 1.05681C10.0547 1.04101 9.78809 1.04101 9.31551 1.04102H8.18322C7.71062 1.04101 7.44399 1.04101 7.21448 1.05681C3.91332 1.28413 1.28607 3.89061 1.05693 7.16566C1.041 7.39334 1.04101 7.65787 1.04102 8.12672V8.18294C1.04101 8.65184 1.041 8.91635 1.05693 9.14402C1.13856 10.3106 1.52482 11.3932 2.13753 12.3132L1.20222 15.6243L4.76043 14.6008C5.50983 14.9646 6.33883 15.1926 7.21448 15.2528C7.44399 15.2687 7.71062 15.2687 8.18322 15.2687H9.31551C9.78809 15.2687 10.0547 15.2687 10.2842 15.2528C13.5853 15.0255 16.2126 12.4191 16.4418 9.14402C16.4577 8.91635 16.4577 8.65185 16.4577 8.18295V8.12672C16.4577 7.65787 16.4577 7.39334 16.4418 7.16566C16.2126 3.89061 13.5853 1.28413 10.2842 1.05681ZM5.41602 9.37435H12.0827V10.6243H5.41602V9.37435ZM5.41602 6.04102H9.58267V7.29102H5.41602V6.04102Z" fill="black"/>
<path d="M4.67969 15.7089C5.79065 17.3366 7.61673 18.4424 9.71509 18.5869C9.94459 18.6027 10.2113 18.6027 10.6838 18.6027H11.8161C12.2887 18.6027 12.5553 18.6027 12.7848 18.5869C13.6605 18.5266 14.4895 18.2987 15.2388 17.935L18.7971 18.9584L17.8618 15.6472C18.4745 14.7272 18.8608 13.6447 18.9423 12.478C18.9583 12.2504 18.9583 11.9859 18.9583 11.517V11.4608C18.9583 10.9919 18.9583 10.7274 18.9423 10.4997C18.8438 9.09121 18.3018 7.80637 17.4533 6.78125C17.4648 6.88477 17.4742 6.98892 17.4815 7.09367C17.5 7.35812 17.5 7.65567 17.4999 8.08649V8.22463C17.5 8.65546 17.5 8.95296 17.4815 9.21746C17.2157 13.0172 14.1697 16.0302 10.3564 16.2928C10.0907 16.3111 9.7915 16.311 9.3565 16.311H8.14338C7.70837 16.311 7.40924 16.3111 7.14354 16.2928C6.27616 16.233 5.44709 16.0307 4.68121 15.7085L4.67969 15.7089Z" fill="black"/>
</g>
</svg>
