<svg width="20" height="20" viewBox="0 0 20 20" fill="none" xmlns="http://www.w3.org/2000/svg">
<g opacity="0.9">
<path fillRule="evenodd" clipRule="evenodd" d="M10.0007 1.04102C7.35428 1.04102 5.20898 3.18632 5.20898 5.83268V9.16602C5.20898 11.8123 7.35428 13.9577 10.0007 13.9577C12.2383 13.9577 14.1178 12.4238 14.6449 10.3501C14.7069 10.1061 14.7379 9.9841 14.6629 9.88752C14.5878 9.79102 14.4527 9.79102 14.1826 9.79102H11.6673C11.3222 9.79102 11.0423 9.51118 11.0423 9.16602C11.0423 8.82085 11.3222 8.54102 11.6673 8.54102H14.2923C14.528 8.54102 14.6459 8.54102 14.7191 8.46777C14.7923 8.3946 14.7923 8.27672 14.7923 8.04102V6.95768C14.7923 6.72198 14.7923 6.60413 14.7191 6.53091C14.6459 6.45768 14.528 6.45768 14.2923 6.45768H11.6673C11.3222 6.45768 11.0423 6.17786 11.0423 5.83268C11.0423 5.48751 11.3222 5.20768 11.6673 5.20768H14.1826C14.4527 5.20768 14.5878 5.20768 14.6629 5.11115C14.7379 5.01462 14.7069 4.89261 14.6449 4.64861C14.1178 2.57491 12.2383 1.04102 10.0007 1.04102Z" fill="black"/>
<path fillRule="evenodd" clipRule="evenodd" d="M3.51917 8.54102C3.96663 8.54102 4.32935 8.89977 4.32935 9.34227C4.32935 12.44 6.86848 14.9513 10.0007 14.9513C13.1328 14.9513 15.672 12.44 15.672 9.34227C15.672 8.89977 16.0347 8.54102 16.4822 8.54102C16.9296 8.54102 17.2923 8.89977 17.2923 9.34227C17.2923 13.0543 14.4567 16.1113 10.8108 16.5098V17.3551H12.4312C12.8787 17.3551 13.2414 17.7138 13.2414 18.1564C13.2414 18.5989 12.8787 18.9577 12.4312 18.9577H7.57009C7.12264 18.9577 6.75991 18.5989 6.75991 18.1564C6.75991 17.7138 7.12264 17.3551 7.57009 17.3551H9.19048V16.5098C5.54468 16.1113 2.70898 13.0543 2.70898 9.34227C2.70898 8.89977 3.07172 8.54102 3.51917 8.54102Z" fill="black"/>
</g>
</svg>
