<svg xmlns="http://www.w3.org/2000/svg" width="29" height="20" viewBox="0 0 29 20" fill="none">
  <g clipPath="url(#clip0_3886_7558)">
    <path d="M27.8192 3.11944C27.656 2.51651 27.3378 1.96683 26.8961 1.52514C26.4544 1.08346 25.9048 0.765179 25.3018 0.602C23.0945 0 14.2107 0 14.2107 0C14.2107 0 5.32651 0.0182222 3.11917 0.620222C2.51623 0.783411 1.96655 1.10171 1.52489 1.54341C1.08322 1.98512 0.764976 2.53482 0.60184 3.13778C-0.0658267 7.05978 -0.324827 13.036 0.620173 16.8011C0.783326 17.4041 1.10158 17.9537 1.54325 18.3954C1.98491 18.8371 2.53458 19.1554 3.13751 19.3186C5.34484 19.9206 14.2288 19.9206 14.2288 19.9206C14.2288 19.9206 23.1127 19.9206 25.32 19.3186C25.9229 19.1554 26.4726 18.8371 26.9143 18.3954C27.356 17.9538 27.6742 17.4041 27.8374 16.8011C28.5416 12.8736 28.7586 6.901 27.8192 3.11944Z" fill="#FF0000"/>
    <path d="M11.3828 14.2287L18.7526 9.96007L11.3828 5.69141V14.2287Z" fill="white"/>
  </g>
  <defs>
    <clipPath id="clip0_3886_7558">
      <rect width="28.45" height="20" fill="white"/>
    </clipPath>
  </defs>
</svg>