<svg width="92" height="26" viewBox="0 0 92 26" fill="none" xmlns="http://www.w3.org/2000/svg">
<path d="M72.731 5.96822L91.15 0.251953L78.4472 11.6845L72.731 5.96822Z" fill="#A762FE"/>
<path d="M87.3393 15.4952L70.8257 20.5763L82.2582 10.4141L87.3393 15.4952Z" fill="#A762FE"/>
<path d="M67.4063 3.50393H64.1443L64.1138 0.150391H67.4063V3.50393ZM67.4368 20.5765H64.1443V5.33314H67.4368V20.5765Z" fill="#313131"/>
<path d="M62.0143 20.5765H58.7217V0.150391H62.0143V20.5765Z" fill="#313131"/>
<path d="M45.4491 25.8521H42.187V5.42596H45.1747V7.92587H45.3271C46.0283 6.15764 47.7661 5.12109 50.3879 5.12109C54.6561 5.12109 57.0036 8.20026 57.0036 13.0172C57.0036 17.8036 54.7171 20.8827 50.6014 20.8827C47.888 20.8827 46.2113 19.6328 45.5406 18.2304H45.4491V25.8521ZM45.4491 14.3586C45.4491 16.889 46.9125 18.078 49.5953 18.078C52.4915 18.078 53.711 16.7365 53.711 13.0172C53.711 9.26729 52.522 7.92587 49.5953 7.92587C46.9125 7.92587 45.4491 9.11486 45.4491 11.6453V14.3586Z" fill="#313131"/>
<path d="M19.0362 20.5779H15.7437V5.42596H18.7618V8.26123H18.8838C19.585 6.64543 21.1703 5.12109 24.0665 5.12109C26.7189 5.12109 28.3652 6.34056 29.0968 8.26123H29.1883C29.8895 6.67592 31.4443 5.12109 34.432 5.12109C38.3343 5.12109 40.0721 7.62101 40.0721 11.066V20.5779H36.7795V11.7977C36.7795 9.08437 35.9564 7.95636 33.2126 7.95636C30.7126 7.95636 29.5541 8.99291 29.5541 11.7672V20.5779H26.2616V11.7977C26.2616 9.08437 25.4384 7.95636 22.6946 7.95636C20.1947 7.95636 19.0362 8.99291 19.0362 11.7367V20.5779Z" fill="#313131"/>
<path d="M4.81691 20.8827C2.10359 20.8827 0 19.4804 0 16.828C0 14.3281 1.8292 13.0172 5.0608 12.5599L10.3655 11.7672V10.9441C10.3655 8.68804 9.32894 8.01733 6.95098 8.01733C4.54252 8.01733 3.59744 8.7795 3.59744 10.7916V11.2489H0.426814V10.9441C0.426814 7.56003 3.07916 5.12109 7.1339 5.12109C11.3716 5.12109 13.5056 7.68198 13.5056 11.3709V20.5779H10.457V18.1999H10.3045C9.4204 19.6328 7.68266 20.8827 4.81691 20.8827ZM3.20111 16.5841C3.20111 17.7731 3.96328 18.2609 5.88394 18.2609C8.01801 18.2609 10.3655 17.4073 10.3655 14.3586V14.0842L5.54859 14.8159C3.81084 15.0598 3.20111 15.4561 3.20111 16.5841Z" fill="#313131"/>
</svg>
